<svg preserveAspectRatio="none" width="100%" height="100%" overflow="visible" style="display: block;" viewBox="0 0 22 23" fill="none" xmlns="http://www.w3.org/2000/svg">
<g id="Layer_1" clip-path="url(#clip0_0_4)">
<path id="Vector" d="M16.0627 0H5.93729C2.66305 0 0 2.7841 0 6.20717V16.7928C0 20.2159 2.66305 23 5.93729 23H16.0627C19.3369 23 22 20.2159 22 16.7928V6.20717C22 2.7841 19.3369 0 16.0627 0ZM20.6437 16.7928C20.6437 19.4339 18.589 21.5851 16.0598 21.5851H5.93729C3.41103 21.5851 1.35335 19.437 1.35335 16.7928V6.20717C1.35335 3.56608 3.40812 1.41487 5.93729 1.41487H16.0627C18.589 1.41487 20.6466 3.56304 20.6466 6.20717V16.7928H20.6437ZM10.9985 5.9029C8.04736 5.9029 5.64334 8.41315 5.64334 11.5015C5.64334 14.5899 8.04445 17.1001 10.9985 17.1001C13.9526 17.1001 16.3538 14.5899 16.3538 11.5015C16.3538 8.41315 13.9526 5.9029 10.9985 5.9029ZM10.9985 15.6822C8.79243 15.6822 6.9996 13.8079 6.9996 11.5015C6.9996 9.19513 8.79243 7.32081 10.9985 7.32081C13.2047 7.32081 14.9975 9.19513 14.9975 11.5015C14.9975 13.8079 13.2047 15.6822 10.9985 15.6822ZM16.7729 3.57217C16.0976 3.57217 15.5534 4.1442 15.5534 4.84707C15.5534 5.54994 16.1005 6.12197 16.7729 6.12197C17.4452 6.12197 17.9923 5.54994 17.9923 4.84707C17.9923 4.1442 17.4452 3.57217 16.7729 3.57217Z" fill="var(--fill-0, white)"/>
</g>
<defs>
<clipPath id="clip0_0_4">
<rect width="22" height="23" fill="white"/>
</clipPath>
</defs>
</svg>
