<svg xmlns="http://www.w3.org/2000/svg" viewBox="0 0 549.83 808.312" preserveAspectRatio="none"><path d="M255.211 0.342864C370.381 -4.34414 496.971 38.3829 512.441 168.025C517.051 206.715 513.671 237.361 493.491 271.382C478.871 296.036 460.731 314.202 437.021 330.287C421.789 340.625 407.308 343.391 395.301 357.573C394.377 358.664 393.814 360.035 393.648 361.455C389.978 392.916 401.144 394.166 429.971 403.357C506.371 427.71 543.561 486.72 549.131 563.721C560.131 715.572 439.721 799.554 300.451 807.557C220.591 812.005 132.601 797.601 71.0108 742.847C27.084 703.798 5.3109 651.566 0.0335741 594.497C-0.391756 589.898 3.27953 585.994 7.89866 585.996L63.8771 586.015C67.4956 586.016 70.674 588.448 71.532 591.963C77.6036 616.84 79.1404 637.036 93.4108 661.698C121.051 709.444 153.921 737.397 206.801 752.241C282.101 770.856 370.411 759.377 427.691 702.882C491.671 639.765 494.731 521.442 428.681 458.221C374.139 406.022 312.656 401.169 242.64 401.263C238.09 401.269 234.431 397.503 234.508 392.953C234.648 384.591 234.585 376.1 234.528 367.717C234.497 363.155 238.285 359.513 242.846 359.587C291.655 360.375 347.322 350.244 385.341 319.161C415.501 294.785 434.621 259.32 438.401 220.721C442.261 181.634 432.511 137.043 407.341 106.422C349.951 36.6109 220.931 29.7129 152.901 87.0119C114.887 119.034 94.5894 170.095 88.6673 218.71C88.191 222.62 85.0401 225.691 81.1048 225.855C64.98 226.527 44.1772 226.488 27.5917 226.183C22.8456 226.096 19.2489 221.887 19.8134 217.174C20.4598 211.776 21.094 206.379 21.8708 201.07C34.8008 112.824 93.1108 33.9489 181.411 10.3849C207.001 3.55887 228.981 1.79986 255.211 0.342864Z" fill="white"/></svg>