<svg xmlns="http://www.w3.org/2000/svg" viewBox="0 0 721.259 793.716" preserveAspectRatio="none"><path d="M304.831 5.60202C305.97 2.44283 308.926 0.291161 312.284 0.242526C344.246 -0.2204 377.23 0.130062 409.277 0.085034C412.58 0.0803929 415.548 2.10097 416.751 5.17751L614.713 511.753L685.165 692.094C696.17 720.287 708.325 753.878 720.593 782.44C722.761 787.489 719.404 793.184 713.913 793.395C693.821 794.165 666.129 793.333 646.352 793.123C642.853 793.086 639.801 790.896 638.709 787.571C625.421 747.127 561.377 563.955 552.704 555.266C548.297 550.852 543.148 548.659 537.098 547.476C522.247 544.572 505.726 546.024 490.63 546.043L415.76 546.134L267.415 546.043C238.79 545.988 201.045 542.805 173.384 550.473C168.818 551.739 163.614 560.84 161.827 565.428C133.297 638.678 110.189 714.439 82.016 787.835C80.8403 790.897 77.9256 792.924 74.6452 792.967C57.9008 793.187 19.6049 793.786 4.39275 792.242C1.02867 791.901 -0.743644 789.074 0.296947 785.856C8.56705 760.287 50.0622 657.538 55.0209 644.856L222.932 215.226L279.749 69.1082C287.624 48.8607 297.396 26.2212 304.831 5.60202ZM366.76 492.197L452.782 492.286C470.555 492.309 513.518 497.572 519.508 475.853C524.854 456.466 509.895 428.269 503.168 409.118L459.508 287.153L414.816 162.352C407.086 140.744 399.825 118.963 391.547 97.5542C384.109 78.3202 380.549 66.8482 356.881 68.0812C356.455 68.1035 356.029 68.1326 355.604 68.1684C355.08 68.2125 354.564 68.3196 354.062 68.4779C346.468 70.8749 338.916 74.0684 335.4 81.7142C327.133 99.6902 320.45 120.321 313.84 139.028L279.224 235.961L230.183 372.564C220.534 399.024 210.646 425.584 201.59 452.071C197.019 465.441 198.649 482.984 213.099 488.415C230.087 494.799 257.506 492.329 275.914 492.269L366.76 492.197Z" fill="white"/></svg>