<svg xmlns="http://www.w3.org/2000/svg" viewBox="0 0 549.55 809.368" preserveAspectRatio="none"><path d="M248.68 0.973836C288.73 -3.26616 357.05 6.85884 393.66 21.2668C415.67 29.8188 436.06 42.0398 453.97 57.4108C491.81 90.3038 508.52 131.691 512.73 181.365C518.32 247.357 487.15 295.243 434.38 332.462C423.52 340.718 408.01 343.305 398.99 353.843C388.73 365.835 387.79 384.185 401.88 393.528C411.23 399.721 422.46 400.814 432.67 404.925C453.47 413.301 473.82 423.495 491.24 437.749C527.42 466.5 543.73 514.454 548.32 559.281C554.45 616.35 537.5 674.588 501.15 719.151C411.59 828.964 183.15 837.556 78.126 750.238C40.715 718.979 14.9 676.05 4.83102 628.35C2.41654 616.994 1.12798 605.075 0.0350702 593.351C-0.401733 588.666 3.29782 584.625 8.00368 584.627L62.5507 584.652C66.6203 584.653 70.0244 587.713 70.6096 591.74C74.0488 615.407 81.2562 638.387 91.97 659.802C116.17 707.979 150.49 734.301 200.93 751.118C275.99 774.794 373.39 758.198 429.37 700.709C493.93 634.414 492.05 518.867 424.9 454.931C387.3 419.131 336.76 406.248 286.21 402.436C271.569 401.336 257.019 401.446 242.378 401.69C237.782 401.767 234.063 397.969 234.132 393.372C234.252 385.325 234.163 376.822 234.106 368.716C234.074 364.057 238.036 360.395 242.691 360.598C328.438 364.33 419.574 326.026 436.06 231.819C464.03 72.0338 280.99 3.63985 162.14 80.1988C113.192 111.726 97.9952 165.543 88.0802 220.073C87.3843 223.901 84.0795 226.708 80.19 226.753C64.4695 226.936 31.7228 227.456 21.7009 226.376C20.2807 226.223 18.6552 225.362 18.75 223.937C22.162 172.211 43.953 114.167 77.496 75.7078C123.12 23.3918 182.51 5.65184 248.68 0.973836Z" fill="white"/></svg>