<svg preserveAspectRatio="none" width="100%" height="100%" overflow="visible" style="display: block;" viewBox="0 0 162 33" fill="none" xmlns="http://www.w3.org/2000/svg">
<g id="Layer_1" clip-path="url(#clip0_0_10)">
<path id="Vector" d="M9.99994 0H14.3346L24.3345 25.902H20.1057L17.4192 18.3549H6.88L4.2288 25.902H0L9.99994 0ZM16.2701 15.0942L12.2177 3.66383H12.0765L8.02918 15.0891H16.2701V15.0942Z" fill="var(--fill-0, white)"/>
<path id="Vector_2" d="M24.1884 16.5077C24.1884 11.1395 27.0563 6.6745 32.646 6.6745C34.5109 6.6745 37.1268 7.43482 38.4524 9.64945H38.5229V0H42.0713V25.902H38.5229V23.3608H38.4524C37.1268 25.5397 34.5109 26.3 32.646 26.3C27.0563 26.3 24.1884 21.8401 24.1884 16.5026V16.5077ZM33.2558 23.2536C37.0915 23.2536 38.6288 19.9878 38.6288 16.5077C38.6288 13.0275 37.0865 9.72599 33.2558 9.72599C29.4252 9.72599 27.8829 13.099 27.8829 16.5077C27.8829 19.9163 29.3899 23.2536 33.2558 23.2536Z" fill="var(--fill-0, white)"/>
<path id="Vector_3" d="M44.1731 7.14907H48.0441L52.9533 22.2024H53.0591L57.9684 7.14907H61.8393L55.1005 25.9071H50.9422L44.1681 7.14907H44.1731Z" fill="var(--fill-0, white)"/>
<path id="Vector_4" d="M63.9462 7.14907H67.4945V25.9071H63.9462V7.14907Z" fill="var(--fill-0, white)"/>
<path id="Vector_5" d="M70.0248 19.8449H73.6084C73.7899 22.131 75.3272 23.4373 78.1951 23.4373C80.6699 23.4373 82.4239 22.4576 82.4239 20.8246C82.4239 19.6612 81.4914 18.8294 79.3039 18.36L76.1487 17.7068C72.3131 16.9108 70.4885 15.0227 70.4885 12.3386C70.4885 8.96567 73.3917 6.6796 77.8322 6.6796C82.2727 6.6796 85.3926 9.43513 85.4985 12.9561H81.9148C81.6981 10.4914 80.0499 9.43513 77.8322 9.43513C75.6145 9.43513 73.9612 10.522 73.9612 12.1192C73.9612 13.3541 75.0348 14.1501 77.1517 14.5482L80.2717 15.1656C84.4299 15.9259 86.0075 17.814 86.0075 20.6052C86.0075 23.9425 82.8876 26.3 78.1951 26.3C72.928 26.3 70.0248 23.3608 70.0248 19.8449Z" fill="var(--fill-0, white)"/>
<path id="Vector_6" d="M87.5549 16.5077C87.5549 10.9915 90.7454 6.6745 96.6929 6.6745C102.64 6.6745 105.831 10.9915 105.831 16.5077C105.831 22.0238 102.64 26.3051 96.6929 26.3051C90.7454 26.3051 87.5549 22.0238 87.5549 16.5077ZM96.6929 23.2536C99.702 23.2536 102.141 20.9318 102.141 16.5077C102.141 12.0835 99.707 9.72599 96.6929 9.72599C93.6788 9.72599 91.2797 12.0835 91.2797 16.5077C91.2797 20.9318 93.6788 23.2536 96.6929 23.2536Z" fill="var(--fill-0, white)"/>
<g id="Group">
<path id="Vector_7" d="M139.616 10.1648H142.439C142.479 11.7773 143.421 12.8336 145.034 12.8336C146.486 12.8336 147.509 11.9865 147.509 10.5578C147.509 9.12896 146.506 8.3023 144.787 8.3023H143.724V6.10809H144.621C145.911 6.10809 146.889 5.44472 146.889 4.18432C146.889 2.92392 146.133 2.26055 144.883 2.26055C143.432 2.26055 142.736 3.39848 142.716 5.0569H139.893C139.994 1.82681 141.733 0.00510283 144.883 0.00510283C147.786 0.00510283 149.727 1.31143 149.727 3.98021C149.727 5.28653 148.89 6.46529 147.66 7.02149V7.06232C149.419 7.49606 150.337 8.90444 150.337 10.7466C150.337 13.4766 148.19 15.0942 144.979 15.0942C141.768 15.0942 139.54 13.3949 139.601 10.1699L139.616 10.1648Z" fill="var(--fill-0, white)"/>
<path id="Vector_8" d="M151.269 10.1648H154.092C154.132 11.7773 155.075 12.8336 156.688 12.8336C158.139 12.8336 159.162 11.9865 159.162 10.5578C159.162 9.12896 158.159 8.3023 156.441 8.3023H155.377V6.10809H156.274C157.565 6.10809 158.542 5.44472 158.542 4.18432C158.542 2.92392 157.786 2.26055 156.536 2.26055C155.085 2.26055 154.389 3.39848 154.369 5.0569H151.546C151.647 1.82681 153.386 0.00510283 156.536 0.00510283C159.44 0.00510283 161.38 1.31143 161.38 3.98021C161.38 5.28653 160.543 6.46529 159.314 7.02149V7.06232C161.073 7.49606 161.99 8.90444 161.99 10.7466C161.99 13.4766 159.843 15.0942 156.632 15.0942C153.421 15.0942 151.194 13.3949 151.254 10.1699L151.269 10.1648Z" fill="var(--fill-0, white)"/>
</g>
<path id="Vector_9" d="M134.294 7.14907L130.433 16.7169L128.719 21.2584L127.035 16.6812L123.16 7.20009L123.139 7.15417H119.309L126.819 25.259L126.315 26.448C125.997 27.3206 125.66 28.0145 125.312 28.5146C124.964 29.0147 124.586 29.3923 124.183 29.6423C123.785 29.8873 123.291 30.0148 122.711 30.0148H121.184V33.0102H122.948C123.981 33.0102 124.888 32.8571 125.649 32.551C126.411 32.2448 127.101 31.7396 127.701 31.0354C128.296 30.3363 128.865 29.3617 129.394 28.1319L138.084 7.14907H134.288H134.294Z" fill="var(--fill-0, white)"/>
<path id="Vector_10" d="M111.436 9.63925C112.499 8.06247 114.057 7.13886 116.068 7.13886H118.003V10.2159H115.917C113.104 10.2159 111.436 12.0631 111.436 15.0585V25.902H107.943V7.13886H111.436V9.63925Z" fill="var(--fill-0, white)"/>
</g>
<defs>
<clipPath id="clip0_0_10">
<rect width="162" height="33" fill="white"/>
</clipPath>
</defs>
</svg>
