<svg width="1136" height="236" viewBox="0 0 284 59" fill="none" xmlns="http://www.w3.org/2000/svg">
  <defs>
    <linearGradient id="rim" x1="0" y1="0" x2="0" y2="1">
      <stop offset="0%" stop-color="#e8e6e2" />
      <stop offset="40%" stop-color="#a8a59f" />
      <stop offset="100%" stop-color="#2a2826" />
    </linearGradient>
    <linearGradient id="fill" x1="0" y1="0" x2="0" y2="1">
      <stop offset="0%" stop-color="#ffffff" stop-opacity="0.18" />
      <stop offset="100%" stop-color="#ffffff" stop-opacity="0.04" />
    </linearGradient>
    <filter id="innerShadow" x="-5%" y="-5%" width="110%" height="110%">
      <feGaussianBlur in="SourceAlpha" stdDeviation="1.2" />
      <feOffset dx="0" dy="1.5" />
      <feComposite in2="SourceAlpha" operator="arithmetic" k2="-1" k3="1" result="shadowDiff" />
      <feColorMatrix in="shadowDiff" type="matrix" values="0 0 0 0 1  0 0 0 0 1  0 0 0 0 1  0 0 0 0.35 0" />
    </filter>
  </defs>
  <!-- Pill body: translucent white fill with inner-shadow filter for depth -->
  <path d="M0 29.5C0 13.2076 13.2076 0 29.5 0H254.5C270.792 0 284 13.2076 284 29.5C284 45.7924 270.792 59 254.5 59H29.5C13.2076 59 0 45.7924 0 29.5Z"
        fill="url(#fill)"
        filter="url(#innerShadow)" />
  <!-- Crisp metallic rim — vector path, sharp at any resolution -->
  <path d="M0 29.5C0 13.2076 13.2076 0 29.5 0H254.5C270.792 0 284 13.2076 284 29.5C284 45.7924 270.792 59 254.5 59H29.5C13.2076 59 0 45.7924 0 29.5Z"
        fill="none"
        stroke="url(#rim)"
        stroke-width="1" />
</svg>
